PathFileType	4	(X/Y/Z)	Walk10.trc
DataRate	CameraRate	NumFrames	NumMarkers	Units	OrigDataRate	OrigDataStartFrame	OrigNumFrames
200.000000	200.000000	4	59	mm	200.000000	234	470
Frame#	Times		RCAR		LElbow		LFA1		LWRU		LTH3		LLFC		LTB1		LTB3		RTH2		LCAR		LTH2		LMT5		LMT1		LToe		LASI		LBHD		LUA1		C7		RFA1		RWRU		RPSI		T10		LTH4		LPSI		LACR1		LLMAL		RBHD		RUA1		LElbowM		LFHD		RElbow		LTB2		LWRR		RACR1		RFHD		RToe		RElbowM		RTB2		RLFC		RCAL		RMT5		RLMAL		LMFC		RTB1		RTH3		STRN		RTB4		RASI		RTB3		RMT1		RMFC		LTB4		RTH4		LTH1		LCAL		LMMAL		RMMAL		RTH1		RWRR
			X1	Y1	Z1	X2	Y2	Z2	X3	Y3	Z3	X4	Y4	Z4	X5	Y5	Z5	X6	Y6	Z6	X7	Y7	Z7	X8	Y8	Z8	X9	Y9	Z9	X10	Y10	Z10	X11	Y11	Z11	X12	Y12	Z12	X13	Y13	Z13	X14	Y14	Z14	X15	Y15	Z15	X16	Y16	Z16	X17	Y17	Z17	X18	Y18	Z18	X19	Y19	Z19	X20	Y20	Z20	X21	Y21	Z21	X22	Y22	Z22	X23	Y23	Z23	X24	Y24	Z24	X25	Y25	Z25	X26	Y26	Z26	X27	Y27	Z27	X28	Y28	Z28	X29	Y29	Z29	X30	Y30	Z30	X31	Y31	Z31	X32	Y32	Z32	X33	Y33	Z33	X34	Y34	Z34	X35	Y35	Z35	X36	Y36	Z36	X37	Y37	Z37	X38	Y38	Z38	X39	Y39	Z39	X40	Y40	Z40	X41	Y41	Z41	X42	Y42	Z42	X43	Y43	Z43	X44	Y44	Z44	X45	Y45	Z45	X46	Y46	Z46	X47	Y47	Z47	X48	Y48	Z48	X49	Y49	Z49	X50	Y50	Z50	X51	Y51	Z51	X52	Y52	Z52	X53	Y53	Z53	X54	Y54	Z54	X55	Y55	Z55	X56	Y56	Z56	X57	Y57	Z57	X58	Y58	Z58	X59	Y59	Z59

234	1.17	46.014	900.71	446.26	-263.75	1147.2	-151.65	-246.8	995.17	-158.57	-214.86	865.1	-145.41	-47.634	633.5	-23.18	-29.176	536.37	-13.288	17.931	402.65	58.917	-7.6705	219.18	59.112	-142.71	692.07	270.81	-146.83	824.99	-167.27	-22.582	747.82	-12.434	39.149	38.445	-8.7609	82.781	54.077	68.733	127.91	60.78	49.013	-128.59	1033.1	-3.3771	-150.22	1654.3	59.957	-219.68	1298.3	-131.91	-211.53	1515.1	131.82	-101.02	1012.1	464.04	-22.83	901.56	448.91	-336.43	1032.3	183.81	-332.71	1296.3	134.18	-82.016	717.7	-40.809	-341.78	1024.4	105.29	-153.41	1467.2	-39.17	-60.542	90.378	18.575	-147.14	1654.7	201.79	-153.81	1299.7	396.22	-289.42	1141	-78.066	32.325	1644	100.3	-176.85	1149.6	452.6	-19.843	318.1	-11.417	-138.99	877.48	-114.48	-290.4	1428.7	269.14	32.919	1643.2	176.97	-162.24	29.244	168.6	-210.9	1123.5	380.79	-288.28	270.27	233.5	-262.85	493.97	266.21	-413.73	41.418	130.56	-269.82	24.237	221.17	-357.93	72.469	183.8	-14.484	548.14	113.68	-235.35	365.23	185.27	-230.44	610.01	283.25	-52.687	1244.3	121.91	-260.48	276.75	168.82	-123.5	1039.9	284.02	-288.16	188.23	155.86	-215.49	38.38	144.32	-253.53	517.71	135.4	5.0725	314.09	60.74	-208.5	700.32	302.68	-115.45	804.68	-52.085	-114.36	46.351	67.69	-29.91	112.88	98.792	-319.77	97.777	107.8	-192.88	794.37	315.82	21.939	933.97	393.55
235	1.175	56.278	902.93	445.49	-259.05	1147	-151.72	-243.12	994.93	-158.88	-212.01	864.62	-145.96	-42.196	632.78	-22.947	-23.661	535.52	-12.992	26.941	403.1	59.501	7.4844	218.87	59.685	-139.26	691.35	270.75	-144.31	824.06	-168.05	-17.086	747.06	-12.184	60.693	39.044	-7.4683	103.24	56.093	70.347	148.23	64.096	50.964	-122.65	1032.2	-3.5517	-144.21	1653.6	59.894	-214.18	1297.8	-131.98	-205.49	1514.5	131.73	-91.963	1012.5	463.99	-12.562	902.91	448.32	-330.77	1031.8	183.43	-326.79	1295.7	133.8	-76.405	716.99	-40.783	-335.98	1023.8	104.89	-147.24	1466.6	-39.239	-40.824	88.33	19.028	-141.06	1654.1	201.72	-147.34	1299.3	396.38	-284.61	1140.9	-78.115	38.358	1643.4	100.16	-169.34	1149.2	453.07	-7.7886	317.29	-10.931	-135.99	876.44	-115.2	-284.54	1428.1	268.98	38.994	1642.6	176.83	-162.22	29.194	168.66	-203.51	1122.8	381.36	-287.5	270.44	233.57	-261.12	494.14	266.22	-413.67	41.901	130.51	-269.85	24.218	221.12	-357.88	72.819	183.77	-9.8744	547.06	114.12	-234.22	365.22	185.31	-227.71	610.02	283.12	-46.722	1243.7	122.05	-259.65	276.83	168.85	-118.02	1039.1	284.06	-287.6	188.38	155.93	-215.47	38.379	144.33	-251.74	517.87	135.31	17.131	314.16	61.276	-205	700.14	302.51	-109.63	804.01	-52.313	-93.608	42.874	67.879	-11.349	111.87	99.402	-319.55	98.051	107.8	-188.58	794.03	315.56	31.645	935.98	392.91
236	1.18	66.424	905.1	444.73	-254.3	1146.8	-151.81	-239.39	994.67	-159.2	-209.11	864.13	-146.53	-36.952	631.91	-22.758	-18.302	534.55	-12.688	35.786	403.54	60.079	22.417	218.74	60.255	-135.78	690.62	270.71	-141.75	823.12	-168.8	-11.685	746.13	-11.973	81.938	39.981	-6.1656	123.36	58.418	71.951	168.18	67.676	52.905	-116.67	1031.3	-3.7426	-138.19	1652.9	59.821	-208.62	1297.4	-132.07	-199.44	1513.9	131.63	-82.971	1012.8	463.93	-2.3894	904.21	447.72	-325.08	1031.3	183.03	-320.86	1295.2	133.4	-70.94	716.14	-40.76	-330.13	1023.2	104.49	-141.04	1466	-39.318	-21.322	86.637	19.49	-134.97	1653.5	201.65	-140.87	1298.9	396.51	-279.74	1140.7	-78.187	44.405	1642.7	100	-161.87	1148.8	453.5	4.0719	316.6	-10.441	-132.95	875.38	-115.9	-278.67	1427.4	268.8	45.085	1641.9	176.68	-162.19	29.145	168.72	-196.15	1122	381.89	-286.69	270.62	233.64	-259.34	494.3	266.23	-413.6	42.414	130.45	-269.88	24.2	221.07	-357.83	73.195	183.73	-5.4015	545.81	114.6	-233.04	365.22	185.34	-224.96	610.04	282.99	-40.74	1243	122.17	-258.78	276.91	168.89	-112.49	1038.2	284.08	-287.02	188.55	156.01	-215.46	38.381	144.35	-249.87	518.03	135.23	29.009	314.33	61.8	-201.49	699.95	302.35	-103.91	803.23	-52.521	-73.053	39.787	68.082	6.9886	111.16	100.01	-319.33	98.338	107.81	-184.28	793.68	315.31	41.247	937.93	392.27
237	1.185	76.451	907.21	443.96	-249.48	1146.6	-151.92	-235.58	994.38	-159.53	-206.16	863.61	-147.1	-31.896	630.88	-22.616	-13.081	533.47	-12.374	44.469	403.98	60.65	37.096	218.8	60.822	-132.28	689.89	270.69	-139.12	822.15	-169.54	-6.3773	745.02	-11.804	102.81	41.247	-4.8619	143.09	61.04	73.528	187.71	71.501	54.815	-110.65	1030.4	-3.9471	-132.15	1652.1	59.738	-203.01	1296.9	-132.17	-193.38	1513.2	131.52	-74.05	1013.1	463.84	7.6832	905.46	447.11	-319.37	1030.7	182.62	-314.91	1294.6	132.99	-65.618	715.17	-40.742	-324.25	1022.5	104.09	-134.82	1465.3	-39.409	-2.101	85.297	19.965	-128.86	1652.8	201.56	-134.4	1298.5	396.61	-274.83	1140.6	-78.281	50.465	1642	99.841	-154.42	1148.3	453.9	15.723	316.04	-9.9459	-129.88	874.3	-116.59	-272.78	1426.7	268.59	51.191	1641.2	176.52	-162.17	29.094	168.78	-188.81	1121.2	382.39	-285.84	270.81	233.71	-257.51	494.47	266.24	-413.53	42.958	130.38	-269.91	24.183	221.03	-357.78	73.598	183.69	-1.0411	544.41	115.14	-231.8	365.21	185.37	-222.16	610.06	282.87	-34.741	1242.2	122.28	-257.86	277.01	168.93	-106.92	1037.3	284.08	-286.41	188.74	156.07	-215.44	38.386	144.37	-247.9	518.18	135.16	40.687	314.59	62.316	-197.96	699.76	302.2	-98.267	802.34	-52.706	-52.756	37.085	68.308	25.051	110.74	100.62	-319.09	98.638	107.82	-179.96	793.32	315.08	50.744	939.83	391.63
